<?xml version="1.0" standalone="no"?>
<!DOCTYPE svg PUBLIC "-//W3C//DTD SVG 20010904//EN"
 "http://www.w3.org/TR/2001/REC-SVG-20010904/DTD/svg10.dtd">
<svg version="1.0" xmlns="http://www.w3.org/2000/svg"
 width="690.000000pt" height="690.000000pt" viewBox="0 0 690.000000 690.000000"
 preserveAspectRatio="xMidYMid meet">

<g transform="translate(0.000000,690.000000) scale(0.100000,-0.100000)"
fill="#000000" stroke="none">
<path d="M3111 6524 c-30 -13 -76 -40 -101 -58 -69 -50 -86 -57 -158 -67 -37
-5 -77 -16 -90 -25 -34 -22 -62 -74 -62 -116 0 -24 -8 -46 -24 -65 -95 -113
-85 -265 24 -367 47 -44 176 -116 210 -116 8 0 -6 -12 -32 -27 -26 -14 -50
-36 -53 -47 -3 -12 -11 -38 -17 -59 -10 -33 -9 -40 9 -60 12 -13 23 -43 27
-76 8 -62 49 -177 73 -203 9 -10 24 -18 35 -18 12 0 18 -7 18 -24 0 -40 38
-148 69 -198 l30 -47 -34 -20 c-20 -11 -35 -29 -37 -43 -2 -13 -11 -24 -23
-26 -11 -2 -36 -19 -55 -37 -32 -30 -336 -169 -525 -240 -32 -12 -66 -32 -74
-44 -7 -12 -29 -38 -49 -59 -55 -59 -158 -221 -212 -334 -60 -126 -103 -256
-131 -394 -15 -75 -30 -119 -54 -160 -83 -138 -87 -379 -8 -554 30 -67 139
-202 180 -223 19 -10 65 -22 102 -26 56 -6 76 -13 127 -49 l60 -42 337 0 336
0 163 49 c90 27 199 59 243 71 44 12 116 39 161 60 l81 37 103 -59 c68 -39
123 -63 165 -72 35 -7 93 -30 129 -50 l67 -36 197 0 c191 0 201 1 283 28 46
16 108 35 136 41 97 24 153 101 153 214 0 26 4 47 10 47 5 0 25 33 44 73 90
189 93 395 9 535 -19 32 -39 80 -43 109 -24 147 -79 311 -152 458 -52 105
-166 285 -180 285 -4 0 -18 17 -32 38 -17 28 -36 41 -72 54 -131 44 -492 209
-531 242 -23 20 -48 36 -57 36 -9 0 -22 16 -31 35 -10 24 -24 39 -45 47 -28 9
-30 12 -16 27 26 28 76 149 83 197 5 35 11 48 29 54 13 5 30 20 38 33 23 34
55 131 62 189 4 29 15 59 25 69 20 20 25 64 9 74 -20 13 -9 35 28 54 49 25 87
67 101 112 20 61 -2 118 -74 199 -31 35 -49 67 -60 108 -55 196 -102 284 -171
317 -26 13 -74 21 -144 26 -101 6 -109 9 -203 57 -190 98 -300 116 -406 66z
m210 -38 c30 -8 107 -40 170 -70 111 -53 120 -56 195 -56 154 -1 210 -53 283
-263 36 -104 44 -120 92 -177 63 -75 76 -136 38 -184 -30 -38 -71 -56 -129
-56 l-50 0 0 71 c0 69 1 71 23 65 12 -4 38 -9 57 -13 l35 -5 -65 67 c-70 71
-128 107 -206 126 -83 19 -211 87 -265 138 l-49 47 0 -37 c0 -58 -31 -82 -96
-76 -101 10 -221 90 -285 190 -31 48 -39 55 -39 36 0 -39 53 -140 109 -207
l52 -62 -44 0 c-80 0 -209 49 -276 106 -18 14 -34 24 -37 21 -16 -15 62 -113
124 -156 17 -12 32 -27 32 -33 0 -16 -141 -3 -180 17 -17 9 -34 15 -36 12 -8
-7 77 -87 93 -87 30 0 63 -47 63 -90 0 -48 -12 -51 -86 -16 -176 82 -224 238
-114 376 22 28 30 49 30 78 0 50 29 89 78 101 20 5 55 14 77 20 22 6 69 29
105 52 71 46 155 78 210 78 20 1 60 -5 91 -13z m382 -541 c43 -8 98 -25 124
-37 l47 -23 -3 -85 c-1 -47 -4 -86 -5 -88 -2 -1 -26 6 -53 17 -100 39 -199 53
-378 54 -180 0 -285 -14 -386 -53 -30 -11 -57 -20 -61 -20 -5 0 -8 41 -8 91
l0 90 35 15 c58 24 150 45 238 54 109 12 355 3 450 -15z m-5 -252 c15 -11 44
-25 65 -32 26 -9 42 -22 48 -39 17 -44 24 -370 10 -444 -15 -71 -54 -159 -84
-185 -20 -17 -20 -17 -13 2 12 31 19 75 13 75 -3 0 -20 -27 -37 -59 -66 -123
-166 -194 -273 -193 -111 0 -170 43 -265 187 -37 56 -52 73 -52 57 0 -13 7
-39 15 -59 15 -35 15 -36 -3 -20 -30 27 -69 106 -87 177 -15 55 -16 94 -11
245 7 226 9 233 55 252 20 8 56 25 81 38 43 23 51 23 205 18 88 -3 176 -1 195
4 44 12 104 1 138 -24z m-723 -85 c3 -24 9 -58 12 -75 5 -32 5 -33 -27 -26
l-33 6 28 -47 c26 -44 27 -50 15 -85 -9 -28 -9 -43 -1 -59 15 -28 14 -42 -3
-42 -27 0 -72 157 -62 215 4 19 16 39 26 45 11 6 20 17 20 25 0 12 -6 12 -42
-1 -22 -8 -43 -12 -45 -10 -2 2 10 15 27 30 27 22 29 27 15 33 -14 5 -12 8 11
19 46 20 52 17 59 -28z m960 28 c17 -9 22 -16 13 -19 -9 -3 -4 -14 17 -37 24
-26 26 -31 10 -26 -80 31 -96 23 -49 -21 24 -22 26 -29 21 -81 -7 -74 -43
-172 -64 -172 -11 0 -13 6 -8 23 14 46 17 75 6 81 -18 11 -13 39 14 78 33 48
32 60 -1 48 -14 -6 -27 -10 -29 -10 -6 0 7 102 16 128 10 26 17 27 54 8z
m-1029 -941 c43 -39 181 -125 201 -125 23 0 14 -17 -22 -41 -19 -13 -51 -46
-72 -73 -20 -27 -50 -61 -65 -77 -59 -58 -17 -109 89 -109 132 0 247 48 338
139 l49 50 48 -45 c103 -97 300 -141 386 -88 37 24 29 68 -23 126 -25 28 -44
52 -42 55 6 6 177 -68 177 -77 0 -4 -13 -58 -30 -121 -42 -160 -77 -335 -109
-541 -20 -127 -33 -183 -45 -197 -33 -37 -102 -42 -436 -33 -347 9 -406 4
-523 -43 -64 -26 -68 -26 -92 -11 -23 15 -25 23 -25 86 0 123 -29 205 -79 221
-7 3 -18 38 -25 79 -8 41 -30 125 -50 185 -37 112 -106 269 -114 261 -2 -3 17
-79 42 -169 38 -133 76 -304 76 -338 0 -3 -57 -9 -127 -12 -131 -5 -323 -46
-394 -83 -17 -8 -33 -13 -36 -10 -7 6 22 150 53 261 55 195 217 475 277 475
10 0 32 -14 48 -31 36 -38 36 -28 4 45 -27 62 -26 76 8 76 12 0 51 14 87 31
126 61 365 168 376 169 7 0 29 -16 50 -35z m1190 -4 c49 -22 148 -67 219 -100
72 -33 137 -61 146 -61 36 0 43 -27 20 -79 -30 -72 -26 -80 19 -36 22 21 41
37 44 34 2 -2 29 -44 61 -92 66 -102 130 -235 173 -362 32 -93 66 -235 58
-242 -2 -3 -24 6 -48 20 -62 36 -179 67 -280 74 -72 5 -89 9 -93 24 -9 26 -33
31 -67 13 -16 -8 -33 -13 -36 -9 -15 14 50 256 114 430 7 20 7 20 -15 0 -28
-25 -101 -175 -132 -272 -15 -49 -28 -73 -38 -74 -9 0 -68 -40 -131 -88 -113
-86 -116 -90 -175 -194 -97 -172 -103 -150 -50 163 30 179 83 413 128 561 8
26 12 52 8 57 -4 6 -62 31 -130 56 -68 25 -126 48 -128 49 -2 2 25 18 59 35
35 17 85 54 113 81 27 28 54 51 60 51 7 0 52 -18 101 -39z m148 -797 c16 -42
6 -63 -53 -108 -32 -25 -86 -75 -119 -111 -38 -41 -72 -69 -93 -75 -18 -5 -34
-8 -36 -7 -1 2 20 40 47 85 43 69 64 91 140 148 50 36 90 70 90 75 0 15 17 10
24 -7z m130 -85 c-1 -13 -2 -29 -3 -35 -2 -21 -218 -184 -243 -184 -48 0 -49
14 -7 65 44 53 99 99 181 150 60 37 74 38 72 4z m245 -35 c74 -17 165 -59 232
-108 66 -49 91 -106 97 -228 5 -111 -8 -174 -46 -219 -29 -35 -47 -37 -63 -6
-53 102 -204 211 -391 283 -40 15 -74 29 -76 30 -2 1 12 23 31 48 43 56 53 95
37 152 -19 67 -11 78 58 69 31 -3 86 -13 121 -21z m-1999 -46 c11 -7 25 -29
30 -48 14 -48 12 -197 -3 -240 -11 -33 -15 -35 -62 -37 -207 -11 -363 -83
-532 -246 l-82 -80 -27 17 c-14 10 -35 39 -47 64 -18 40 -22 65 -21 167 1 196
39 262 189 331 88 40 192 72 276 84 84 12 252 5 279 -12z m1760 -88 c-6 -15
-26 -42 -45 -60 l-33 -32 -48 14 -49 14 90 67 c80 60 90 65 93 46 2 -12 -2
-33 -8 -49z m-271 -110 c214 -27 459 -144 580 -276 87 -95 151 -269 125 -341
-11 -31 -75 -72 -114 -73 -14 0 -45 -14 -69 -30 -148 -100 -402 -94 -666 15
-113 47 -180 84 -380 210 -88 56 -202 126 -253 155 -167 93 -388 180 -502 195
-89 12 -90 19 -9 52 144 60 167 62 528 52 315 -8 358 -6 521 31 101 22 129 23
239 10z m-1323 -205 c116 -22 195 -50 329 -116 118 -58 274 -161 344 -227 l36
-34 -25 -20 c-43 -34 -159 -88 -266 -123 -340 -112 -727 -102 -906 22 -50 35
-58 37 -130 38 -93 0 -123 20 -121 80 4 148 265 360 478 388 71 9 189 6 261
-8z"/>
<path d="M3185 5657 c-29 -24 -83 -107 -70 -107 3 0 27 16 53 35 59 46 96 45
129 -4 28 -41 25 -47 -14 -25 -37 21 -87 13 -128 -21 l-30 -24 32 -1 c48 0 48
-16 0 -25 -42 -8 -42 -8 33 -18 74 -10 75 -10 45 -24 l-30 -14 35 5 c19 2 42
7 51 11 13 5 21 -4 34 -40 25 -63 32 -63 27 -1 -2 30 1 69 7 88 9 27 8 45 -4
84 -18 62 -51 94 -102 101 -32 4 -45 0 -68 -20z"/>
<path d="M3560 5667 c-14 -6 -35 -33 -48 -58 -21 -43 -23 -55 -16 -149 6 -92
9 -101 21 -84 8 10 17 32 20 47 4 21 10 26 22 22 9 -4 32 -9 51 -11 33 -4 34
-4 10 7 l-25 12 25 7 c14 5 48 9 75 10 38 1 45 4 30 10 -11 5 -33 9 -50 9 -37
1 -22 18 20 23 l30 3 -40 28 c-47 32 -78 34 -122 7 l-32 -19 10 27 c27 72 73
80 144 26 26 -19 49 -33 53 -30 9 10 -61 104 -86 115 -30 14 -61 14 -92 -2z"/>
<path d="M3220 5338 l-45 -21 34 -7 c18 -5 41 -16 50 -25 15 -16 12 -17 -57
-12 l-74 6 7 -41 c12 -67 42 -144 75 -193 41 -60 57 -57 25 5 -27 53 -44 140
-28 140 5 0 19 -13 31 -30 38 -51 96 -74 187 -74 90 0 140 19 188 73 15 17 32
31 37 31 13 0 2 -53 -25 -122 -12 -32 -19 -58 -14 -58 26 0 91 142 105 229 l6
40 -67 -6 c-55 -5 -67 -4 -63 8 3 8 22 19 44 25 l39 12 -45 21 c-25 11 -55 21
-67 21 -20 0 -22 -4 -16 -30 5 -29 4 -30 -29 -30 -19 0 -39 -5 -45 -11 -14
-14 -64 -15 -90 0 -12 6 -36 11 -54 11 -30 0 -31 2 -25 30 5 26 3 30 -17 29
-12 0 -42 -10 -67 -21z m285 -167 l70 -2 -30 -16 c-45 -25 -152 -29 -214 -8
-28 9 -51 20 -51 23 0 6 27 7 225 3z"/>
<path d="M3360 5011 c60 -55 71 -59 91 -35 8 9 31 27 51 40 46 29 50 47 8 32
-32 -11 -150 -7 -185 6 -11 4 5 -15 35 -43z"/>
<path d="M3797 4216 c6 -31 -26 -45 -44 -20 -12 17 -13 16 -13 -3 0 -41 60
-69 88 -41 25 25 8 88 -24 88 -6 0 -9 -10 -7 -24z"/>
<path d="M3749 3972 c13 -25 -2 -46 -28 -39 -13 3 -21 0 -21 -7 0 -37 72 -50
90 -17 14 28 13 38 -10 61 -26 26 -44 27 -31 2z"/>
<path d="M3700 3695 c19 -23 4 -48 -25 -43 -28 6 -29 4 -15 -23 12 -22 59 -26
78 -7 19 19 15 66 -7 78 -30 16 -46 13 -31 -5z"/>
<path d="M1202 2650 c-214 -63 -352 -249 -352 -472 0 -148 49 -265 154 -368
38 -36 46 -41 47 -25 0 11 6 69 12 130 10 88 14 107 24 95 7 -8 34 -42 60 -75
57 -72 82 -94 107 -95 25 0 18 35 -29 135 -19 42 -35 79 -35 82 0 3 -25 67
-55 143 -43 108 -55 150 -55 192 0 129 62 212 189 252 69 23 72 25 36 25 -22
0 -68 -9 -103 -19z"/>
<path d="M1398 2653 c12 -2 30 -2 40 0 9 3 -1 5 -23 4 -22 0 -30 -2 -17 -4z"/>
<path d="M1309 2603 c-10 -11 -14 -45 -14 -107 0 -77 4 -102 28 -160 15 -37
39 -85 52 -104 25 -37 32 -62 17 -62 -29 0 -151 188 -152 234 -1 11 -7 35 -15
51 l-13 30 -1 -38 c-1 -38 26 -164 39 -182 4 -5 10 -21 13 -35 4 -14 22 -52
42 -84 19 -32 33 -61 30 -64 -9 -9 -55 41 -99 108 -62 94 -80 155 -74 254 5
79 5 80 -10 46 -31 -71 -26 -168 13 -255 7 -16 29 -66 48 -110 19 -44 52 -118
72 -165 45 -100 53 -185 22 -204 -41 -24 -52 -35 -44 -42 12 -12 57 18 73 48
28 54 11 170 -39 273 -14 28 -24 51 -22 53 18 19 123 -125 132 -182 3 -21 10
-33 15 -28 14 14 -20 151 -59 235 -20 42 -34 79 -31 82 7 7 47 -38 75 -83 66
-108 95 -198 83 -263 -7 -37 -6 -41 5 -26 45 61 22 178 -79 407 -41 91 -84
197 -96 237 l-23 71 21 36 c12 21 22 39 22 42 0 10 -19 3 -31 -13z"/>
<path d="M1436 2600 c12 -5 25 -13 29 -19 7 -13 25 -15 25 -3 0 10 -45 32 -63
31 -7 0 -2 -4 9 -9z"/>
<path d="M2593 2590 c-79 -17 -164 -92 -199 -175 -7 -19 -14 -57 -14 -84 0
-48 23 -187 40 -246 5 -16 19 -70 31 -118 21 -82 21 -89 6 -105 -16 -15 -19
-15 -44 4 -16 12 -44 53 -63 92 -19 39 -38 71 -41 71 -4 1 -21 -45 -38 -101
-17 -57 -36 -110 -40 -119 -5 -9 -6 -20 -3 -25 31 -45 174 -96 266 -97 178 0
308 114 293 258 -5 51 -68 350 -87 415 -13 45 -13 97 0 105 19 12 129 -83 130
-112 0 -7 4 -13 9 -13 5 0 14 33 21 73 6 39 13 84 16 100 5 25 1 29 -48 52
-61 28 -168 39 -235 25z m86 -56 c-8 -9 -28 -31 -46 -49 -39 -39 -40 -49 -9
-140 55 -162 70 -244 71 -376 0 -123 -1 -126 -29 -163 -34 -46 -42 -42 -20 10
13 30 15 56 10 114 -7 89 -35 187 -55 195 -21 8 -22 4 -6 -55 29 -109 14 -261
-31 -309 -9 -10 -8 -2 3 30 24 69 19 142 -14 207 -29 59 -62 86 -49 41 27 -97
30 -200 6 -250 -7 -15 -23 -32 -37 -38 -33 -15 -74 -14 -68 2 3 6 -7 18 -22
25 -43 19 -96 67 -91 82 2 8 20 -4 49 -33 33 -35 54 -48 85 -53 37 -5 43 -3
62 21 29 37 28 91 -4 212 -62 233 -72 332 -40 407 19 47 30 44 16 -5 -15 -52
-12 -104 12 -182 25 -84 61 -151 66 -124 2 9 -3 41 -12 69 -21 76 -29 159 -20
210 l7 43 13 -65 c14 -74 55 -169 84 -195 26 -24 26 -8 1 73 -11 33 -23 91
-26 129 -6 59 -4 75 14 111 12 23 33 48 49 56 36 20 48 20 31 0z m101 -49 c16
-19 0 -19 -26 0 -16 12 -16 14 -3 15 9 0 22 -7 29 -15z m-397 -742 c-7 -2 -19
-2 -25 0 -7 3 -2 5 12 5 14 0 19 -2 13 -5z"/>
<path d="M1586 2575 c4 -8 12 -15 20 -15 19 0 18 16 -2 24 -22 9 -24 8 -18 -9z"/>
<path d="M3001 2513 c-7 -43 -19 -116 -27 -163 -70 -408 -104 -617 -104 -648
0 -22 3 -23 72 -20 70 3 73 4 74 28 1 14 8 113 15 220 17 236 17 262 3 267 -6
2 -21 -51 -38 -134 -48 -248 -67 -328 -78 -338 -7 -7 -8 -1 -4 20 3 17 12 71
21 120 9 50 22 126 30 170 8 44 24 136 35 205 11 69 27 161 35 205 8 44 14 86
15 93 0 6 7 12 15 12 13 0 15 -25 15 -167 1 -148 2 -166 15 -149 8 10 17 39
21 65 12 91 42 252 47 257 3 3 3 -91 0 -209 -4 -147 -3 -216 5 -221 7 -4 14
13 20 46 6 29 22 118 37 198 28 155 43 207 44 157 1 -16 -3 -47 -9 -70 -5 -23
-32 -186 -60 -362 -60 -378 -58 -365 -70 -365 -6 0 -8 52 -6 129 3 119 -3 165
-20 149 -4 -4 -13 -42 -20 -85 -7 -43 -20 -109 -29 -148 -8 -38 -15 -76 -15
-82 0 -9 23 -13 80 -13 74 0 81 2 90 23 5 12 23 103 40 202 16 99 44 257 60
350 47 257 50 278 50 308 l0 27 -174 0 -173 0 -12 -77z"/>
<path d="M3678 2422 c-44 -92 -109 -228 -145 -302 -36 -74 -96 -199 -134 -277
-38 -77 -69 -146 -69 -151 0 -6 43 -11 108 -11 l108 -1 17 57 c10 32 25 77 34
101 l16 43 96 -3 96 -3 9 -97 9 -98 68 0 c59 0 69 3 69 18 0 22 -87 442 -106
509 -8 29 -19 55 -24 58 -13 8 -12 -28 4 -170 7 -66 14 -127 14 -135 1 -8 6
-64 13 -123 10 -96 8 -130 -5 -116 -2 2 -9 46 -15 97 -5 51 -13 97 -16 102
-10 15 -270 13 -282 -2 -6 -7 -18 -38 -28 -68 -10 -30 -27 -73 -37 -95 l-19
-40 6 37 c3 20 22 80 41 133 23 62 34 105 30 121 -5 17 7 51 43 122 47 91 137
280 177 371 10 23 21 41 26 41 7 0 3 -12 -52 -135 -38 -85 -53 -125 -49 -130
8 -8 24 10 48 55 32 59 84 140 91 140 3 0 14 -39 24 -87 26 -132 36 -164 47
-158 6 4 7 69 4 173 -7 175 3 199 24 62 22 -141 58 -295 67 -290 11 6 11 91 0
258 -8 109 -7 122 8 122 20 0 22 -13 36 -205 6 -88 17 -223 25 -300 24 -237
29 -325 18 -325 -10 0 -21 32 -42 125 -29 125 -46 175 -59 180 -12 4 -14 -5
-8 -62 3 -38 6 -111 7 -163 1 -52 4 -101 6 -107 4 -9 34 -13 105 -13 l101 0
-7 58 c-3 31 -11 91 -16 132 -6 41 -21 185 -35 320 -14 135 -30 280 -36 322
l-11 78 -160 -1 -160 0 -80 -167z"/>
<path d="M4386 2578 c-2 -7 -7 -29 -9 -48 -11 -68 -48 -286 -66 -385 -10 -55
-24 -131 -30 -170 -7 -38 -18 -104 -26 -145 -7 -41 -16 -92 -20 -112 l-6 -38
84 0 83 0 17 88 c9 48 19 111 23 140 4 28 10 52 15 52 5 0 9 -6 9 -12 1 -7 9
-69 18 -138 l18 -125 79 0 c65 0 80 3 79 15 -1 8 -11 58 -23 110 -12 52 -31
141 -42 198 -14 62 -27 102 -34 102 -9 0 -11 -14 -8 -47 4 -46 29 -247 38
-305 3 -19 0 -28 -9 -28 -14 0 -24 50 -46 235 -5 44 -14 107 -20 140 -6 33
-15 101 -21 150 -6 50 -15 94 -19 99 -14 15 -23 -28 -82 -401 -44 -281 -52
-283 -24 -5 4 44 -9 69 -17 30 -2 -13 -3 0 0 27 2 28 14 109 27 180 14 72 27
144 30 160 3 17 11 64 19 105 l13 75 47 -99 c26 -54 47 -102 47 -106 0 -4 7
-13 15 -20 19 -16 19 -5 -3 160 l-17 125 -68 3 c-48 2 -68 -1 -71 -10z m-56
-698 c-6 -29 -13 -56 -16 -59 -6 -6 -4 5 12 90 3 17 8 29 10 26 2 -2 0 -28 -6
-57z"/>
<path d="M4546 2581 c-3 -5 14 -74 38 -153 24 -78 47 -155 50 -170 4 -16 11
-28 16 -28 13 0 13 39 -1 195 -10 120 -8 148 8 131 8 -7 13 -47 38 -276 17
-152 34 -209 50 -161 3 12 51 103 106 203 54 100 99 184 99 187 0 3 10 17 21
31 l21 25 -6 -93 c-6 -118 6 -117 49 4 17 49 36 87 41 84 5 -2 8 -9 7 -15 -1
-9 -9 -97 -29 -307 -2 -31 -1 -59 4 -62 13 -8 27 30 57 149 14 55 32 127 41
160 15 61 28 84 40 72 6 -6 -3 -67 -36 -237 -5 -25 -14 -81 -20 -125 -6 -44
-15 -100 -20 -125 -5 -25 -17 -97 -26 -160 -18 -121 -40 -188 -29 -90 15 144
17 195 7 185 -6 -5 -31 -68 -57 -140 -26 -71 -51 -137 -56 -145 -17 -29 -11
58 19 280 20 144 23 200 13 200 -6 0 -14 -18 -17 -40 -4 -22 -11 -43 -15 -46
-5 -3 -9 -14 -9 -26 0 -21 -79 -350 -86 -357 -15 -15 -11 29 16 200 17 107 39
243 50 303 11 60 18 111 15 114 -7 8 -34 -18 -41 -41 -3 -11 -27 -63 -51 -116
-25 -53 -65 -141 -89 -195 -25 -55 -46 -102 -48 -104 -2 -2 -12 23 -21 55 -10
32 -22 62 -27 67 -4 6 -8 18 -8 28 0 20 -16 25 -22 6 -2 -6 -1 -34 4 -62 7
-52 26 -196 31 -251 2 -16 7 -32 13 -34 7 -3 77 125 119 220 12 28 42 41 31
14 -8 -22 -33 -143 -42 -207 l-6 -48 165 0 165 0 15 93 c9 50 21 126 27 167 7
41 20 120 30 175 10 55 29 161 41 235 12 74 25 155 29 180 4 25 6 48 4 52 -3
4 -78 7 -168 7 l-163 0 -14 -27 c-59 -116 -152 -282 -158 -282 -3 0 -14 66
-24 146 -9 80 -19 150 -22 155 -8 12 -162 12 -169 0z"/>
<path d="M5415 2578 c-7 -20 -44 -221 -60 -323 -13 -85 -46 -278 -80 -465 -8
-47 -15 -91 -15 -97 0 -10 68 -13 309 -13 l309 0 7 48 c3 26 9 58 12 71 l6 23
-137 -4 c-130 -3 -136 -3 -136 16 0 37 33 211 43 223 6 9 38 11 118 6 l108 -6
12 29 c6 16 14 48 16 72 l6 42 -111 0 c-61 0 -113 4 -116 8 -6 10 27 233 37
248 5 9 61 16 137 18 14 0 48 -3 76 -7 l51 -7 7 31 c3 17 6 47 6 65 l0 34
-300 0 c-232 0 -302 -3 -305 -12z m131 -60 c-44 -354 -53 -458 -38 -458 9 0
59 162 112 360 17 63 35 118 39 123 11 11 69 -3 75 -19 4 -10 -4 -14 -33 -14
-35 0 -39 -3 -49 -37 -6 -21 -20 -87 -31 -148 -10 -60 -20 -114 -21 -120 -9
-38 0 -45 51 -42 28 1 53 -1 55 -5 3 -4 -8 -8 -25 -8 -34 0 -49 -15 -25 -24 9
-3 59 -6 112 -6 76 -1 93 -3 78 -12 -13 -7 -59 -9 -138 -5 -79 3 -120 2 -125
-6 -3 -6 -10 -40 -14 -76 -4 -36 -12 -97 -19 -136 -21 -118 -25 -109 55 -115
57 -4 65 -6 42 -13 -20 -5 -27 -13 -23 -22 4 -12 -6 -15 -55 -15 l-61 0 6 38
c38 270 31 323 -20 162 -57 -177 -69 -209 -79 -209 -5 0 -9 8 -8 17 2 9 10 87
18 172 8 85 20 178 26 207 12 51 7 89 -10 79 -4 -3 -14 -34 -21 -68 -7 -35
-16 -76 -21 -93 -5 -16 -18 -73 -30 -125 -31 -139 -42 -180 -51 -180 -9 0 -2
61 13 122 5 20 14 69 19 110 11 78 22 154 40 258 6 36 20 123 31 194 10 71 24
134 30 140 12 12 13 15 -16 -154 -17 -96 -19 -150 -7 -150 5 0 14 17 20 38 6
20 25 84 42 142 35 119 47 150 56 150 4 0 4 -24 0 -52z m379 22 c8 -13 -95
-13 -115 0 -11 7 3 10 47 10 34 0 65 -4 68 -10z m-115 -815 c0 -13 -13 -15
-70 -13 -80 2 -93 15 -22 21 26 2 57 4 70 5 14 1 22 -4 22 -13z"/>
<path d="M1630 2552 c0 -12 19 -26 26 -19 2 2 -2 10 -11 17 -9 8 -15 8 -15 2z"/>
<path d="M1590 2516 c0 -19 5 -38 10 -41 6 -4 10 8 10 29 0 19 -4 38 -10 41
-6 4 -10 -8 -10 -29z"/>
<path d="M1404 2526 c-3 -8 22 -72 56 -143 34 -70 80 -166 103 -213 22 -46 42
-79 45 -71 2 7 0 23 -6 34 -26 52 -41 99 -36 112 4 8 2 15 -3 15 -5 0 -6 26
-3 59 4 45 3 58 -7 54 -7 -3 -13 0 -13 5 0 6 10 12 23 14 20 3 14 12 -49 76
-69 70 -99 86 -110 58z"/>
<path d="M1716 2467 c3 -10 9 -15 12 -12 3 3 0 11 -7 18 -10 9 -11 8 -5 -6z"/>
<path d="M3752 2337 c-13 -23 -42 -76 -64 -117 -23 -41 -48 -86 -57 -100 -31
-48 -76 -139 -71 -144 3 -3 63 -8 133 -12 l127 -7 0 29 c0 29 -16 243 -26 342
-3 28 -8 52 -12 52 -4 0 -17 -19 -30 -43z m21 -239 c3 -39 4 -75 1 -80 -6 -9
-104 -11 -104 -3 0 13 82 155 89 155 5 0 11 -32 14 -72z"/>
<path d="M1610 2064 c0 -8 5 -12 10 -9 6 4 8 11 5 16 -9 14 -15 11 -15 -7z"/>
<path d="M1623 1945 c0 -33 2 -45 4 -27 2 18 2 45 0 60 -2 15 -4 0 -4 -33z"/>
<path d="M1596 1831 c-14 -39 -30 -61 -64 -86 -56 -44 -32 -46 32 -4 37 25 46
36 42 52 -3 11 0 29 5 39 6 11 9 26 7 35 -2 9 -11 -7 -22 -36z"/>
<path d="M1090 1817 c0 -29 74 -77 118 -77 10 0 5 6 -13 16 -16 8 -44 28 -60
45 -34 32 -45 36 -45 16z"/>
<path d="M1205 1700 c3 -5 15 -10 26 -10 10 0 19 5 19 10 0 6 -12 10 -26 10
-14 0 -23 -4 -19 -10z"/>
<path d="M3666 1585 c-3 -8 -1 -15 4 -15 6 0 10 7 10 15 0 8 -2 15 -4 15 -2 0
-6 -7 -10 -15z"/>
<path d="M930 1560 c0 -5 5 -10 11 -10 5 0 7 5 4 10 -3 6 -8 10 -11 10 -2 0
-4 -4 -4 -10z"/>
<path d="M1857 1564 c-2 -2 0 -24 4 -47 24 -112 24 -107 -3 -107 -14 0 -41 16
-67 40 -23 22 -47 40 -52 40 -23 0 -6 29 21 35 30 6 47 21 37 32 -10 10 -77
-19 -91 -39 -19 -26 -11 -45 22 -53 28 -7 62 -32 62 -47 0 -12 -158 -10 -182
3 -14 8 -23 8 -31 0 -15 -15 -37 -14 -37 2 0 8 -9 22 -20 32 -22 20 -27 6 -8
-25 18 -29 -5 -63 -60 -88 -47 -20 -47 -20 -15 -21 25 -1 43 8 73 35 22 20 42
35 43 33 2 -2 11 -16 20 -31 10 -16 26 -28 36 -28 23 0 46 25 31 35 -30 19 2
25 126 25 l137 0 -8 48 c-4 26 -7 64 -7 84 0 32 -17 56 -31 42z m-253 -180 c9
-3 16 -12 16 -20 0 -17 -12 -18 -28 -2 -22 22 -16 33 12 22z"/>
<path d="M4085 1560 c-3 -5 -16 -10 -28 -10 -16 0 -18 -3 -9 -12 8 -8 15 -8
26 1 8 7 20 10 26 6 5 -3 10 1 10 9 0 18 -16 21 -25 6z"/>
<path d="M5235 1560 c-3 -5 1 -10 9 -10 9 0 16 5 16 10 0 6 -4 10 -9 10 -6 0
-13 -4 -16 -10z"/>
<path d="M886 1551 c-4 -5 -2 -12 3 -15 5 -4 12 -2 15 3 4 5 2 12 -3 15 -5 4
-12 2 -15 -3z"/>
<path d="M1195 1530 c3 -19 9 -53 12 -75 8 -57 17 -65 84 -65 l59 0 0 40 c0
29 -4 40 -15 40 -13 0 -14 -4 -5 -20 16 -30 4 -40 -44 -40 -54 0 -66 13 -66
70 0 27 -7 54 -16 66 -14 18 -15 17 -9 -16z"/>
<path d="M3670 1540 c0 -18 19 -30 48 -30 8 0 26 -10 39 -22 13 -12 23 -17 23
-10 0 14 -67 69 -91 75 -13 4 -19 0 -19 -13z"/>
<path d="M3895 1539 c11 -36 22 -119 17 -124 -3 -3 -20 -5 -38 -5 -37 0 -41 8
-50 86 -4 30 -11 54 -16 54 -5 0 -6 -15 -3 -32 8 -49 -13 -80 -75 -110 -48
-23 -51 -27 -27 -27 31 -1 60 12 91 41 21 19 21 19 26 -4 5 -21 12 -23 60 -23
49 0 55 2 53 20 -2 11 -4 47 -6 80 -3 48 -8 61 -22 64 -15 2 -17 -1 -10 -20z"/>
<path d="M4966 1538 c12 -37 24 -92 24 -110 0 -29 -48 -24 -59 6 -15 39 -80
42 -119 6 -30 -28 -89 -36 -111 -16 -17 15 -19 15 -25 1 -10 -28 -50 -15 -54
18 -2 15 -9 27 -18 27 -16 0 -19 -16 -4 -25 6 -3 10 -13 10 -21 0 -12 -12 -14
-57 -12 l-58 3 -5 62 c-5 57 -13 83 -25 72 -2 -3 1 -39 8 -80 l12 -74 260 0
260 0 -2 25 c-1 14 -3 51 -5 83 -2 48 -5 57 -21 57 -15 0 -17 -5 -11 -22z
m-66 -113 c0 -11 -12 -15 -47 -15 -44 1 -47 2 -29 15 26 20 76 20 76 0z"/>
<path d="M5396 1550 c-34 -10 -66 -38 -66 -56 0 -8 20 -23 44 -35 72 -33 68
-49 -12 -49 -72 0 -92 10 -92 45 0 11 -4 26 -9 34 -7 11 -12 10 -28 -5 -11
-11 -28 -24 -38 -30 -29 -16 -9 -37 31 -31 27 5 34 2 39 -14 6 -17 16 -19 101
-19 72 0 94 3 94 13 0 18 -69 87 -87 87 -7 0 -13 7 -13 15 0 8 9 15 21 15 25
0 59 17 59 30 0 11 -5 11 -44 0z m-146 -100 c0 -5 -4 -10 -9 -10 -6 0 -13 5
-16 10 -3 6 1 10 9 10 9 0 16 -4 16 -10z"/>
<path d="M5864 1543 c11 -36 24 -118 20 -125 -6 -10 -75 -5 -93 7 -10 5 -16 4
-19 -3 -5 -17 -33 -15 -55 5 -18 17 -19 17 -28 0 -14 -25 -38 -21 -51 8 -6 14
-17 25 -25 25 -11 0 -11 -6 3 -30 18 -29 17 -30 -5 -54 -13 -14 -36 -28 -52
-31 -40 -9 -46 -25 -10 -25 22 0 43 11 72 37 l40 36 126 -1 126 -2 -9 52 c-4
29 -7 68 -7 86 1 26 -2 32 -18 32 -15 0 -19 -5 -15 -17z"/>
<path d="M5948 1553 c-2 -5 1 -42 6 -83 14 -92 31 -79 21 15 -7 60 -18 87 -27
68z"/>
<path d="M1934 1498 c3 -29 6 -63 6 -75 0 -13 5 -23 10 -23 11 0 13 71 4 119
-11 53 -27 36 -20 -21z"/>
<path d="M2352 1533 c2 -10 13 -23 26 -29 37 -18 70 -54 75 -80 3 -16 0 -23
-7 -21 -14 5 -46 -11 -46 -23 0 -12 50 -13 67 -2 7 4 12 16 11 27 -1 11 1 34
4 50 3 17 3 24 1 18 -8 -23 -27 -14 -68 32 -40 46 -69 59 -63 28z"/>
<path d="M2480 1529 c0 -24 23 -21 28 4 2 10 -3 17 -12 17 -10 0 -16 -9 -16
-21z"/>
<path d="M2540 1542 c0 -12 34 -42 46 -42 6 0 22 -12 36 -27 28 -31 43 -74 25
-72 -30 4 -47 -2 -47 -16 0 -9 9 -15 24 -15 42 0 56 10 56 42 0 23 -13 42 -55
84 -51 49 -85 68 -85 46z"/>
<path d="M2681 1503 c1 -28 4 -37 6 -23 3 14 9 29 14 35 14 14 11 35 -6 35
-11 0 -15 -11 -14 -47z"/>
<path d="M2760 1528 c0 -50 13 -128 21 -128 10 0 12 73 3 119 -7 36 -24 42
-24 9z"/>
<path d="M5044 1513 c3 -21 6 -55 6 -75 0 -21 5 -38 10 -38 11 0 13 37 4 104
-4 25 -11 46 -17 46 -6 0 -7 -15 -3 -37z"/>
<path d="M5200 1540 c0 -5 5 -10 10 -10 6 0 10 5 10 10 0 6 -4 10 -10 10 -5 0
-10 -4 -10 -10z"/>
<path d="M5752 1539 c2 -6 8 -10 13 -10 5 0 11 4 13 10 2 6 -4 11 -13 11 -9 0
-15 -5 -13 -11z"/>
<path d="M1120 1520 c0 -5 4 -10 9 -10 6 0 13 5 16 10 3 6 -1 10 -9 10 -9 0
-16 -4 -16 -10z"/>
<path d="M2210 1520 c0 -5 7 -10 16 -10 8 0 12 5 9 10 -3 6 -10 10 -16 10 -5
0 -9 -4 -9 -10z"/>
<path d="M3070 1520 c0 -5 5 -10 10 -10 6 0 10 5 10 10 0 6 -4 10 -10 10 -5 0
-10 -4 -10 -10z"/>
<path d="M3240 1520 c0 -5 7 -10 15 -10 8 0 15 5 15 10 0 6 -7 10 -15 10 -8 0
-15 -4 -15 -10z"/>
<path d="M4580 1520 c0 -5 5 -10 10 -10 6 0 10 5 10 10 0 6 -4 10 -10 10 -5 0
-10 -4 -10 -10z"/>
<path d="M5785 1520 c-3 -5 1 -10 10 -10 9 0 13 5 10 10 -3 6 -8 10 -10 10 -2
0 -7 -4 -10 -10z"/>
<path d="M2170 1505 c0 -9 5 -15 11 -13 6 2 11 8 11 13 0 5 -5 11 -11 13 -6 2
-11 -4 -11 -13z"/>
<path d="M3030 1505 c0 -8 5 -15 10 -15 6 0 10 7 10 15 0 8 -4 15 -10 15 -5 0
-10 -7 -10 -15z"/>
<path d="M927 1496 c-3 -8 -3 -25 -1 -38 5 -21 4 -22 -9 -5 -17 21 -50 12 -45
-12 2 -11 14 -16 35 -16 17 0 40 -8 50 -17 16 -15 38 -18 122 -18 l102 0 -3
37 c-2 20 -9 39 -17 41 -10 3 -12 0 -7 -14 14 -35 11 -39 -24 -39 -28 0 -35 4
-40 24 -3 14 -11 26 -18 29 -14 4 -16 -14 -2 -23 6 -3 10 -13 10 -21 0 -10
-13 -14 -49 -14 -53 0 -65 9 -76 57 -7 37 -20 50 -28 29z"/>
<path d="M4097 1495 c-4 -11 -21 -26 -38 -32 -40 -15 -33 -38 12 -38 22 1 39
-6 48 -18 13 -18 25 -19 147 -15 86 2 138 8 146 16 18 18 7 22 -37 12 -43 -10
-75 1 -75 25 0 11 12 15 40 15 44 0 54 16 15 26 -35 9 -75 -19 -75 -52 0 -34
-24 -26 -28 9 -2 16 -10 27 -18 27 -11 0 -12 -4 -4 -19 19 -36 12 -42 -42 -39
l-51 3 -17 50 c-14 40 -18 46 -23 30z m3 -39 c0 -11 -19 -15 -25 -6 -3 5 1 10
9 10 9 0 16 -2 16 -4z"/>
<path d="M5740 1500 c0 -5 7 -10 15 -10 8 0 15 5 15 10 0 6 -7 10 -15 10 -8 0
-15 -4 -15 -10z"/>
<path d="M2306 1471 c-4 -7 -2 -18 4 -26 22 -26 0 -35 -91 -35 -76 0 -92 3
-109 20 -25 25 -30 25 -30 1 0 -30 47 -42 151 -39 l94 3 3 27 c4 33 -12 66
-22 49z"/>
<path d="M1596 1453 c-4 -10 -4 -14 0 -10 4 4 13 2 20 -4 14 -12 29 4 19 21
-10 16 -32 12 -39 -7z"/>
<path d="M3057 1463 c-13 -12 -7 -23 13 -23 11 0 20 -7 20 -15 0 -18 -36 -20
-44 -2 -3 6 -4 1 -3 -13 3 -31 31 -38 58 -14 25 22 24 39 -3 58 -25 18 -32 19
-41 9z"/>
<path d="M3370 1456 c0 -17 27 -29 35 -16 4 6 3 15 0 20 -9 15 -35 12 -35 -4z"/>
<path d="M3486 1463 c-4 -5 9 -13 30 -19 21 -6 40 -16 42 -23 3 -10 -17 -12
-94 -10 -66 3 -99 8 -101 16 -4 10 -8 9 -20 -2 -21 -21 -32 -19 -43 10 -5 14
-15 25 -21 25 -7 0 -8 -7 -4 -17 16 -39 15 -50 -5 -68 -12 -11 -41 -28 -63
-37 l-42 -17 35 0 c35 -1 80 22 103 52 13 18 26 13 43 -18 6 -11 22 -20 35
-20 20 0 24 4 21 28 l-3 27 121 0 c73 0 120 4 120 10 0 6 -4 10 -9 10 -4 0
-25 14 -46 30 -36 28 -83 39 -99 23z m-96 -104 c0 -18 -35 -5 -38 14 -3 16 -1
17 17 7 12 -6 21 -15 21 -21z"/>
<path d="M2869 1439 c-10 -19 -8 -24 10 -38 24 -19 17 -35 -22 -50 -31 -12
-29 -32 2 -24 37 10 63 48 59 89 -4 46 -30 58 -49 23z m41 -20 c0 -5 -4 -9
-10 -9 -5 0 -10 7 -10 16 0 8 5 12 10 9 6 -3 10 -10 10 -16z"/>
<path d="M1055 1360 c-3 -5 1 -10 10 -10 9 0 13 5 10 10 -3 6 -8 10 -10 10 -2
0 -7 -4 -10 -10z"/>
<path d="M1300 1350 c0 -5 7 -10 15 -10 8 0 15 5 15 10 0 6 -7 10 -15 10 -8 0
-15 -4 -15 -10z"/>
<path d="M3518 1348 c9 -9 15 -9 24 0 9 9 7 12 -12 12 -19 0 -21 -3 -12 -12z"/>
<path d="M4225 1350 c4 -6 11 -8 16 -5 14 9 11 15 -7 15 -8 0 -12 -5 -9 -10z"/>
<path d="M1015 1340 c3 -5 10 -10 16 -10 5 0 9 5 9 10 0 6 -7 10 -16 10 -8 0
-12 -4 -9 -10z"/>
<path d="M4180 1340 c0 -5 4 -10 9 -10 6 0 13 5 16 10 3 6 -1 10 -9 10 -9 0
-16 -4 -16 -10z"/>
<path d="M889 1252 c-28 -24 -20 -49 21 -63 16 -6 30 -15 30 -20 0 -16 -30
-22 -45 -9 -20 17 -32 5 -15 -15 18 -22 67 -19 80 5 8 15 6 24 -10 40 -11 11
-27 20 -35 20 -8 0 -15 7 -15 16 0 12 7 14 30 9 34 -7 39 1 13 21 -23 18 -27
17 -54 -4z"/>
<path d="M1437 1263 c-4 -3 -7 -11 -7 -17 0 -6 5 -5 12 2 6 6 9 14 7 17 -3 3
-9 2 -12 -2z"/>
<path d="M1190 1250 c0 -5 5 -10 10 -10 6 0 10 5 10 10 0 6 -4 10 -10 10 -5 0
-10 -4 -10 -10z"/>
<path d="M1270 1250 c0 -5 5 -10 10 -10 6 0 10 5 10 10 0 6 -4 10 -10 10 -5 0
-10 -4 -10 -10z"/>
<path d="M1545 1248 c-9 -24 -1 -113 10 -111 14 4 19 103 6 116 -7 7 -12 5
-16 -5z"/>
<path d="M1758 1243 c-2 -10 -12 -18 -23 -18 -12 0 -25 -11 -33 -27 -19 -40
-1 -68 43 -68 l35 0 0 65 c0 36 -4 65 -9 65 -5 0 -11 -8 -13 -17z m0 -69 c-2
-10 -11 -20 -21 -22 -12 -3 -17 3 -17 21 0 26 18 41 33 27 5 -4 7 -16 5 -26z"/>
<path d="M2140 1250 c0 -5 5 -10 10 -10 6 0 10 5 10 10 0 6 -4 10 -10 10 -5 0
-10 -4 -10 -10z"/>
<path d="M2288 1253 c-8 -15 -1 -118 8 -116 12 4 17 104 6 115 -5 5 -12 6 -14
1z"/>
<path d="M2334 1247 c-9 -23 0 -112 11 -110 14 4 18 110 5 118 -5 3 -13 0 -16
-8z"/>
<path d="M2583 1239 c-3 -11 -11 -18 -18 -15 -7 2 -21 -4 -31 -15 -14 -15 -16
-25 -8 -47 8 -22 16 -28 47 -30 l37 -3 0 65 c0 41 -4 66 -11 66 -6 0 -13 -9
-16 -21z m-3 -64 c0 -15 -6 -25 -14 -25 -16 0 -25 19 -18 38 8 22 32 13 32
-13z"/>
<path d="M2635 1250 c-4 -6 -3 -16 3 -22 6 -6 12 -6 17 2 4 6 3 16 -3 22 -6 6
-12 6 -17 -2z"/>
<path d="M2701 1230 c-6 -16 -16 -44 -22 -60 -13 -34 -3 -55 12 -27 12 21 57
23 65 2 4 -8 13 -15 21 -15 8 0 13 6 10 13 -54 130 -65 141 -86 87z m39 -35
c0 -8 -7 -15 -15 -15 -16 0 -20 12 -8 23 11 12 23 8 23 -8z"/>
<path d="M3285 1250 c-3 -5 -1 -10 4 -10 6 0 11 5 11 10 0 6 -2 10 -4 10 -3 0
-8 -4 -11 -10z"/>
<path d="M3337 1253 c-11 -10 -8 -123 3 -123 6 0 10 28 10 65 0 65 -1 71 -13
58z"/>
<path d="M3380 1195 c0 -37 4 -65 10 -65 6 0 10 28 10 65 0 37 -4 65 -10 65
-6 0 -10 -28 -10 -65z"/>
<path d="M4040 1241 c-6 -12 -15 -19 -20 -16 -12 7 -50 -30 -50 -48 0 -24 37
-49 67 -45 26 3 28 6 31 57 4 61 -10 85 -28 52z m0 -67 c0 -15 -6 -24 -15 -24
-21 0 -30 27 -15 45 16 19 30 10 30 -21z"/>
<path d="M4240 1195 c0 -42 4 -64 10 -60 6 3 10 21 11 38 l1 32 12 -34 c16
-46 32 -49 42 -9 l8 33 5 -29 c3 -17 11 -30 16 -30 13 -1 19 104 6 117 -13 13
-41 -9 -41 -34 0 -32 -19 -30 -28 3 -4 18 -16 34 -25 36 -15 3 -17 -6 -17 -63z"/>
<path d="M4570 1250 c0 -6 -9 -23 -20 -39 -17 -22 -19 -32 -11 -54 12 -30 55
-38 65 -12 4 12 0 14 -17 10 -19 -5 -23 -2 -22 17 1 13 6 24 11 25 5 1 8 -5 6
-13 -2 -8 4 -14 13 -14 20 0 20 34 0 50 -9 7 -14 19 -11 27 3 7 1 13 -4 13 -6
0 -10 -5 -10 -10z"/>
<path d="M4710 1250 c0 -5 5 -10 10 -10 6 0 10 5 10 10 0 6 -4 10 -10 10 -5 0
-10 -4 -10 -10z"/>
<path d="M4855 1248 c-9 -24 -1 -113 10 -111 14 4 19 103 6 116 -7 7 -12 5
-16 -5z"/>
<path d="M5050 1195 l0 -65 45 0 c25 0 45 5 45 10 0 6 -16 10 -36 10 -28 0
-35 3 -32 18 2 10 14 18 31 20 37 4 35 22 -3 22 -20 0 -30 5 -30 15 0 10 10
15 30 15 17 0 30 5 30 10 0 6 -18 10 -40 10 l-40 0 0 -65z"/>
<path d="M5167 1254 c-4 -4 -7 -34 -7 -66 0 -78 24 -76 28 2 3 50 -6 78 -21
64z"/>
<path d="M1337 1238 c-2 -7 -1 -33 2 -58 4 -32 11 -46 24 -48 15 -3 16 0 5 23
-9 19 -9 31 -1 44 7 11 8 23 1 34 -11 20 -24 22 -31 5z"/>
<path d="M2013 1235 c-13 -22 -3 -96 14 -102 21 -8 28 4 13 23 -11 12 -11 20
-2 35 9 14 10 25 2 39 -13 24 -16 25 -27 5z"/>
<path d="M3877 1237 c-3 -7 -3 -34 0 -60 4 -37 9 -47 24 -47 16 0 17 3 7 26
-9 18 -9 30 -1 43 8 12 7 22 -2 34 -15 20 -21 21 -28 4z"/>
<path d="M4483 1234 c-14 -30 -1 -98 20 -102 19 -4 22 5 8 27 -5 8 -6 24 -1
37 6 14 4 28 -4 40 -13 17 -14 17 -23 -2z"/>
<path d="M5407 1232 c-6 -26 6 -95 18 -99 8 -2 12 61 6 107 -2 17 -18 11 -24
-8z"/>
<path d="M995 1206 c-36 -54 32 -107 69 -54 12 16 13 26 4 42 -22 42 -50 47
-73 12z m55 -25 c0 -26 -17 -36 -35 -21 -18 15 -8 40 16 40 12 0 19 -7 19 -19z"/>
<path d="M1106 1214 c-19 -19 -20 -44 -3 -68 15 -20 58 -19 65 2 3 9 -3 11
-21 7 -17 -5 -26 -2 -31 10 -9 24 1 35 31 35 21 0 24 2 13 15 -16 19 -35 19
-54 -1z"/>
<path d="M1252 1218 c-13 -13 -16 -47 -6 -72 8 -20 54 -21 54 -2 0 9 -7 12
-18 9 -14 -3 -18 2 -17 21 0 25 20 39 20 14 0 -16 22 -21 31 -7 4 7 -2 20 -16
31 -26 21 -32 22 -48 6z"/>
<path d="M1405 1210 c-26 -29 -10 -74 28 -78 19 -2 27 1 27 11 0 10 -7 13 -19
10 -15 -4 -18 1 -18 21 0 15 3 29 8 32 5 3 9 -4 9 -15 0 -12 7 -21 15 -21 18
0 19 14 5 41 -14 25 -32 24 -55 -1z"/>
<path d="M1613 1220 c-18 -7 -23 -17 -23 -44 0 -45 18 -56 22 -14 2 22 9 34
21 36 14 3 17 -4 17 -32 0 -20 5 -36 10 -36 11 0 14 59 4 84 -7 18 -18 19 -51
6z"/>
<path d="M1921 1211 c-9 -16 -6 -23 17 -42 25 -20 25 -21 5 -16 -16 3 -23 1
-23 -9 0 -8 9 -14 19 -14 50 0 68 29 31 52 -11 7 -20 16 -20 21 0 4 5 5 11 1
7 -4 10 -1 7 7 -7 22 -36 22 -47 0z"/>
<path d="M2197 1212 c-20 -22 -22 -53 -5 -70 17 -17 58 -15 58 2 0 9 -7 12
-20 9 -16 -4 -20 0 -20 20 0 14 5 29 10 32 6 3 10 -3 10 -14 0 -22 14 -28 25
-11 8 13 -13 50 -29 50 -7 0 -20 -8 -29 -18z"/>
<path d="M2391 1216 c-7 -8 -11 -30 -9 -48 3 -29 6 -33 32 -33 16 0 31 6 34
14 3 9 -1 11 -17 6 -18 -5 -21 -2 -21 19 0 14 5 26 10 26 6 0 10 -7 10 -15 0
-17 16 -20 25 -4 8 12 -22 49 -40 49 -7 0 -18 -6 -24 -14z"/>
<path d="M2828 1222 c-27 -3 -28 -5 -28 -62 0 -59 17 -90 27 -52 3 12 14 22
25 24 28 4 42 29 35 60 -8 29 -20 35 -59 30z m37 -47 c0 -11 -8 -21 -17 -23
-14 -3 -18 3 -18 23 0 20 4 26 18 23 9 -2 17 -12 17 -23z"/>
<path d="M2933 1223 c-21 -4 -23 -10 -23 -64 0 -57 10 -74 27 -45 4 8 17 15
28 17 11 3 24 16 29 31 8 22 6 32 -9 48 -10 11 -21 19 -24 19 -3 -1 -16 -4
-28 -6z m37 -48 c0 -16 -6 -25 -15 -25 -9 0 -15 9 -15 25 0 16 6 25 15 25 9 0
15 -9 15 -25z"/>
<path d="M3033 1223 c-21 -8 -15 -26 7 -20 27 7 25 -3 -7 -28 -33 -27 -23 -45
23 -45 33 0 34 1 34 38 0 51 -20 71 -57 55z m27 -63 c0 -5 -5 -10 -11 -10 -5
0 -7 5 -4 10 3 6 8 10 11 10 2 0 4 -4 4 -10z"/>
<path d="M3190 1211 c-13 -26 -13 -54 2 -69 17 -17 58 -15 58 2 0 9 -7 12 -20
9 -16 -4 -20 0 -20 21 0 30 8 33 26 9 12 -16 13 -16 14 8 0 24 -15 39 -40 39
-5 0 -14 -9 -20 -19z"/>
<path d="M3443 1223 c-19 -7 -16 -23 5 -23 12 0 18 -8 20 -25 1 -14 -3 -25 -8
-25 -5 0 -7 7 -4 15 7 18 -7 20 -23 4 -20 -20 -3 -39 33 -39 33 0 34 1 34 38
0 51 -20 71 -57 55z"/>
<path d="M3536 1215 c-31 -31 -14 -85 26 -85 10 0 18 -5 18 -11 0 -7 -10 -9
-26 -5 -19 5 -25 3 -22 -6 7 -21 50 -22 65 -2 18 25 17 114 -1 114 -8 0 -21 3
-29 6 -8 3 -22 -2 -31 -11z m44 -35 c0 -26 -15 -33 -30 -15 -10 12 -10 18 0
30 15 18 30 11 30 -15z"/>
<path d="M3641 1216 c-7 -8 -11 -30 -9 -48 3 -29 6 -33 32 -33 16 0 31 6 34
14 3 9 -1 11 -16 7 -16 -5 -19 -2 -19 19 0 14 3 25 8 25 5 0 8 -5 7 -12 -2 -6
5 -14 15 -16 23 -5 22 20 -1 41 -23 21 -36 21 -51 3z"/>
<path d="M3787 1212 c-21 -23 -22 -56 -3 -72 17 -13 63 -10 58 5 -2 6 -9 9
-16 7 -8 -1 -16 9 -18 23 -6 29 18 36 25 8 4 -17 4 -17 12 0 8 19 -9 47 -30
47 -6 0 -19 -8 -28 -18z"/>
<path d="M4095 1210 c-28 -31 -10 -75 29 -75 16 0 31 6 34 14 3 9 -1 11 -16 7
-15 -5 -21 -1 -24 19 -4 17 -1 25 9 25 8 0 12 -4 8 -9 -8 -14 15 -25 28 -12 7
7 5 16 -8 31 -23 25 -37 25 -60 0z"/>
<path d="M4397 1223 c-12 -11 -8 -23 8 -23 22 0 18 -17 -6 -23 -36 -10 -20
-42 21 -42 31 0 35 3 38 28 5 42 -38 84 -61 60z m33 -63 c0 -5 -7 -10 -16 -10
-8 0 -12 5 -9 10 3 6 10 10 16 10 5 0 9 -4 9 -10z"/>
<path d="M4768 1219 c-19 -11 -24 -54 -9 -77 10 -17 53 -12 59 7 3 9 -2 11
-17 6 -18 -5 -21 -2 -21 19 0 14 5 26 11 26 6 0 9 -7 5 -15 -3 -9 0 -15 9 -15
23 0 28 20 9 41 -20 22 -22 22 -46 8z"/>
<path d="M4912 1218 c-19 -19 -14 -36 16 -53 l27 -16 -28 4 c-18 3 -26 0 -24
-7 2 -6 16 -12 30 -14 37 -5 48 25 19 49 -26 20 -28 31 -6 22 12 -4 15 -2 12
8 -6 19 -30 23 -46 7z"/>
<path d="M5222 1218 c-14 -14 -16 -57 -3 -76 10 -17 53 -12 59 7 3 9 -1 11
-16 7 -16 -5 -19 -2 -19 19 0 14 3 25 8 25 5 0 9 -7 9 -15 0 -17 16 -20 25 -4
8 12 -22 49 -40 49 -6 0 -16 -5 -23 -12z"/>
<path d="M5314 1205 c-24 -37 -5 -78 33 -73 14 2 28 9 31 16 3 9 -3 11 -22 6
-23 -5 -26 -3 -26 20 0 21 5 26 26 26 22 0 25 2 14 15 -18 22 -37 18 -56 -10z"/>
<path d="M5488 1223 c-30 -7 -38 -81 -10 -91 8 -2 12 7 12 29 0 18 7 37 17 44
18 13 7 24 -19 18z"/>
<path d="M5596 1215 c-30 -31 -14 -85 25 -85 9 0 20 -10 25 -22 6 -17 9 -6 11
41 4 71 6 66 -23 75 -14 4 -28 1 -38 -9z m44 -34 c0 -11 -5 -23 -11 -27 -15
-9 -33 12 -26 30 9 23 37 20 37 -3z"/>
<path d="M5807 1212 c-20 -22 -22 -53 -5 -70 17 -17 58 -15 58 2 0 9 -7 12
-20 9 -16 -4 -20 0 -20 21 0 14 5 26 10 26 6 0 10 -7 10 -16 0 -17 21 -15 27
3 4 11 -23 43 -36 43 -4 0 -15 -8 -24 -18z"/>
<path d="M5904 1215 c-18 -15 -18 -16 11 -41 l30 -26 -28 6 c-21 5 -28 3 -25
-6 3 -7 20 -13 39 -13 43 0 53 29 15 46 -31 14 -35 33 -6 24 24 -7 27 10 4 19
-20 8 -17 8 -40 -9z"/>
<path d="M1190 1175 c0 -33 4 -45 13 -42 15 5 14 80 -1 85 -8 2 -12 -12 -12
-43z"/>
<path d="M1812 1178 c3 -42 4 -43 38 -43 34 0 35 1 38 43 2 33 0 42 -12 42
-12 0 -16 -10 -16 -35 0 -24 -5 -35 -15 -35 -10 0 -15 11 -15 35 0 19 -5 35
-11 35 -6 0 -9 -17 -7 -42z"/>
<path d="M2070 1174 c0 -32 4 -44 13 -41 6 2 11 12 9 21 -2 10 4 28 13 42 15
23 15 24 -10 24 -23 0 -25 -3 -25 -46z"/>
<path d="M2139 1216 c-8 -9 3 -86 12 -86 5 0 9 20 9 45 0 40 -7 54 -21 41z"/>
<path d="M3114 1206 c-9 -23 0 -69 14 -74 8 -2 12 7 12 27 0 16 5 33 10 36 17
11 11 25 -10 25 -11 0 -23 -6 -26 -14z"/>
<path d="M3287 1214 c-11 -11 -8 -72 3 -79 6 -3 10 -3 11 2 0 4 2 19 4 33 3
28 -8 54 -18 44z"/>
<path d="M4636 1185 c-7 -36 -2 -55 15 -55 5 0 9 14 9 31 0 19 7 37 18 45 15
12 15 13 -9 14 -23 0 -28 -5 -33 -35z"/>
<path d="M4706 1185 c-7 -36 -2 -55 15 -55 5 0 9 20 9 45 0 54 -15 60 -24 10z"/>
<path d="M5535 1208 c-9 -22 -2 -68 10 -71 14 -3 19 63 6 76 -7 7 -12 5 -16
-5z"/>
<path d="M5692 1178 c3 -42 4 -43 41 -46 l37 -3 0 45 c0 52 -17 63 -22 14 -2
-21 -8 -33 -18 -33 -10 0 -16 12 -18 33 -5 48 -24 39 -20 -10z"/>
</g>
</svg>
